<?xml version="1.0" standalone="yes"?>

<svg version="1.1" viewBox="0.0 0.0 478.18897637795277 463.8923884514436" fill="none" stroke="none" stroke-linecap="square" stroke-miterlimit="10" xmlns="http://www.w3.org/2000/svg" xmlns:xlink="http://www.w3.org/1999/xlink"><clipPath id="p.0"><path d="m0 0l478.18896 0l0 463.8924l-478.18896 0l0 -463.8924z" clip-rule="nonzero"></path></clipPath><g clip-path="url(#p.0)"><path fill="#000000" fill-opacity="0.0" d="m0 0l478.18896 0l0 463.8924l-478.18896 0z" fill-rule="nonzero"></path><path fill="#000000" fill-opacity="0.0" d="m25.47244 231.9462l0 0c0 -117.9802 95.641846 -213.62206 213.62204 -213.62206l0 0c56.656097 0 110.9917 22.506546 151.05359 62.568447c40.06192 40.061905 62.56845 94.39751 62.56845 151.0536l0 0c0 117.980194 -95.641846 213.62204 -213.62204 213.62204l0 0c-117.980194 0 -213.62204 -95.641846 -213.62204 -213.62204z" fill-rule="nonzero"></path><path stroke="#e95420" stroke-width="16.0" stroke-linejoin="round" stroke-linecap="butt" d="m25.47244 231.9462l0 0c0 -117.9802 95.641846 -213.62206 213.62204 -213.62206l0 0c56.656097 0 110.9917 22.506546 151.05359 62.568447c40.06192 40.061905 62.56845 94.39751 62.56845 151.0536l0 0c0 117.980194 -95.641846 213.62204 -213.62204 213.62204l0 0c-117.980194 0 -213.62204 -95.641846 -213.62204 -213.62204z" fill-rule="nonzero"></path><path fill="#000000" fill-opacity="0.0" d="m29.929134 100.90682l418.33072 0l0 262.07874l-418.33072 0z" fill-rule="nonzero"></path><path fill="#e95420" d="m241.43825 226.23682q3.640625 0 6.15625 2.578125q2.515625 2.578125 2.515625 6.203125l0 59.421875q0 3.625 -2.515625 6.15625q-2.515625 2.515625 -6.15625 2.515625l-86.015625 0q-3.625 0 -6.15625 -2.515625q-2.515625 -2.53125 -2.515625 -6.15625l0 -59.421875q0 -3.625 2.515625 -6.203125q2.53125 -2.578125 6.15625 -2.578125l2.578125 0l0 -21.6875q0 -10.78125 5.390625 -20.203125q5.390625 -9.4375 14.828125 -14.828125q9.4375 -5.390625 20.21875 -5.390625q10.78125 0 20.203125 5.390625q9.4375 5.390625 14.828125 14.828125q5.390625 9.421875 5.390625 20.203125l0 21.6875l2.578125 0zm65.749985 72.765625l-12.546875 12.546875l-12.53125 -12.546875l0 -8.3125l8.3125 -8.4375l-8.3125 -8.328125l8.3125 -8.3125l-8.3125 -8.4375l0 -31.53125q-13.015625 -4.328125 -20.984375 -15.21875q-7.9687347 -10.90625 -7.9687347 -24.03125q0 -10.78125 5.4999847 -20.390625q5.515625 -9.609375 15.125 -15.296875q9.609375 -5.6875 20.75 -5.6875q11.125 0 20.796875 5.578125q9.671875 5.5625 15.109375 15.171875q5.453125 9.609375 5.453125 20.625q0 12.890625 -7.859375 23.90625q-7.84375 11.015625 -20.84375 15.34375l0 73.359375zm-88.48436 -94.453125q0 -8.3125 -5.921875 -14.34375q-5.90625 -6.046875 -14.34375 -6.046875q-8.5625 0 -14.421875 6.046875q-5.859375 6.03125 -5.859375 14.34375l0 21.6875l40.546875 0l0 -21.6875zm64.10936 -34.921875q0 4.578125 3.453125 8.21875q3.453125 3.625 8.375 3.625q4.921875 0 8.3125 -3.625q3.40625 -3.640625 3.40625 -8.21875q0 -4.6875 -3.453125 -8.25q-3.453125 -3.578125 -8.265625 -3.578125q-4.796875 0 -8.3125 3.515625q-3.515625 3.515625 -3.515625 8.3125zm-81.32811 97.625q5.15625 -2.109375 5.15625 -7.5q0 -3.40625 -2.40625 -5.75q-2.40625 -2.34375 -5.796875 -2.34375q-3.40625 0 -5.75 2.34375q-2.34375 2.34375 -2.34375 5.75q0 2.578125 1.40625 4.578125q1.40625 1.984375 3.640625 2.921875l-2.8125 11.953125l11.71875 0l-2.8125 -11.953125z" fill-rule="nonzero"></path></g></svg>

